<?xml version="1.0" encoding="utf-8"?>
<!-- Generator: Adobe Illustrator 27.7.0, SVG Export Plug-In . SVG Version: 6.00 Build 0)  -->
<svg version="1.1" id="Ebene_1" xmlns="http://www.w3.org/2000/svg" xmlns:xlink="http://www.w3.org/1999/xlink" x="0px" y="0px"
	 viewBox="0 0 200 200" enable-background="new 0 0 200 200" xml:space="preserve">
<g>
	<g>
		<g>
			<path fill="none" stroke="#000000" stroke-miterlimit="10" d="M14.42,14.59c54.72,21.37,115.51,21.37,170.23,0"/>
			<g>
				<polygon points="13.51,23.28 3.2,9.87 19.98,7.62 				"/>
			</g>
			<g>
				<polygon points="185.57,23.28 195.88,9.87 179.1,7.62 				"/>
			</g>
		</g>
	</g>
	<g>
		<g>
			<path fill="none" stroke="#000000" stroke-linecap="round" stroke-linejoin="round" stroke-miterlimit="10" d="M13.79,193.6
				c-3.24,0-6.49-0.02-9.73-0.02C4.04,143.41,4.03,93.24,4.03,43.07c3.09,1.38,6.22,2.68,9.36,3.92
				C13.52,95.86,13.66,144.74,13.79,193.6z"/>
			<path fill="none" stroke="#000000" stroke-linecap="round" stroke-linejoin="round" stroke-miterlimit="10" d="M44.3,193.65
				c-3.24,0-6.49-0.02-9.73-0.02c-0.27-46.55-0.54-93.13-0.82-139.68c3.21,0.93,6.45,1.82,9.7,2.62
				C43.72,102.26,44.01,147.96,44.3,193.65z"/>
			<path fill="none" stroke="#000000" stroke-linecap="round" stroke-linejoin="round" stroke-miterlimit="10" d="M74.8,193.69
				c-3.24,0-6.49,0-9.73,0c-0.24-44.31-0.48-88.61-0.7-132.92c3.29,0.51,6.59,0.93,9.88,1.31C74.43,105.95,74.61,149.82,74.8,193.69
				z"/>
			<path fill="none" stroke="#000000" stroke-linecap="round" stroke-linejoin="round" stroke-miterlimit="10" d="M105.31,193.69
				c-3.24,0-6.49,0-9.73,0c-0.03-43.41-0.07-86.82-0.12-130.24c3.31,0.07,6.64,0.07,9.95,0
				C105.37,106.88,105.34,150.29,105.31,193.69z"/>
			<path fill="none" stroke="#000000" stroke-linecap="round" stroke-linejoin="round" stroke-miterlimit="10" d="M135.81,193.69
				c-3.24,0-6.49,0-9.73,0c0.19-43.87,0.36-87.74,0.54-131.63c3.31-0.37,6.61-0.8,9.88-1.31
				C136.27,105.06,136.03,149.37,135.81,193.69z"/>
			<path fill="none" stroke="#000000" stroke-linecap="round" stroke-linejoin="round" stroke-miterlimit="10" d="M166.3,193.64
				c-3.24,0-6.49,0.02-9.73,0.02c0.29-45.69,0.58-91.39,0.85-137.08c3.24-0.8,6.47-1.68,9.7-2.62
				C166.86,100.53,166.59,147.08,166.3,193.64z"/>
			<path fill="none" stroke="#000000" stroke-linecap="round" stroke-linejoin="round" stroke-miterlimit="10" d="M196.8,193.58
				c-3.24,0-6.49,0.02-9.73,0.02c0.14-48.88,0.27-97.75,0.41-146.63c3.14-1.24,6.27-2.55,9.36-3.92
				C196.83,93.24,196.82,143.41,196.8,193.58z"/>
		</g>
	</g>
</g>
</svg>
