<?xml version="1.0" encoding="utf-8"?>
<!-- Generator: Adobe Illustrator 27.7.0, SVG Export Plug-In . SVG Version: 6.00 Build 0)  -->
<svg version="1.1" id="Ebene_1" xmlns="http://www.w3.org/2000/svg" xmlns:xlink="http://www.w3.org/1999/xlink" x="0px" y="0px"
	 viewBox="0 0 200 200" enable-background="new 0 0 200 200" xml:space="preserve">
<g>
	<path fill="none" stroke="#000000" stroke-width="1.5" stroke-linecap="round" stroke-miterlimit="10" d="M144.15,75.61
		c-0.14-13.97,10.71-25.97,24.69-27.33c13.51-1.31,26.25,8.31,28.94,21.85c2.85,14.35-6.1,28.7-20.1,31.88
		c-3.15,0.72-6.47,0.89-9.71,0.9c-20.92,0.09-106.53,0.06-127.46,0.06"/>
	<path fill="none" stroke="#000000" stroke-width="1.5" stroke-linecap="round" stroke-miterlimit="10" d="M12.54,121.37
		c20.93,0,80.64-0.03,101.56,0.06c3.24,0.01,6.57,0.19,9.71,0.9c14.01,3.19,22.95,17.53,20.1,31.88
		c-2.69,13.55-15.43,23.16-28.94,21.85c-13.98-1.36-24.82-13.36-24.69-27.33"/>
	<path fill="none" stroke="#000000" stroke-width="1.5" stroke-linecap="round" stroke-miterlimit="10" d="M79.83,52.45
		c-0.14-13.97,10.71-25.97,24.69-27.33c13.51-1.31,26.25,8.31,28.94,21.85c2.85,14.35-6.1,28.7-20.1,31.88
		c-3.15,0.72-6.47,0.89-9.71,0.9C82.72,79.85,24,79.82,3.07,79.82"/>
	<path d="M40.5,102.98"/>
	<path d="M104.13,60.52c-1.42,0-2.51-1.09-2.51-2.51c0.01-1.42,1.09-2.5,2.53-2.49c1.37,0.01,2.46,1.1,2.47,2.47
		C106.63,59.42,105.55,60.52,104.13,60.52"/>
	<path d="M66.18,145.82c-1.37-0.02-2.5-1.19-2.46-2.55c0.05-1.38,1.19-2.45,2.59-2.41c1.35,0.03,2.43,1.16,2.41,2.5
		C68.7,144.74,67.57,145.84,66.18,145.82"/>
	<path d="M23.66,55.53c1.42,0.02,2.49,1.12,2.46,2.55c-0.02,1.42-1.13,2.47-2.57,2.45c-1.36-0.02-2.43-1.13-2.43-2.51
		C21.13,56.62,22.25,55.52,23.66,55.53"/>
	<path d="M7.45,109.75c-1.4,0-2.5-1.11-2.5-2.51c0-1.36,1.09-2.45,2.46-2.46c1.43-0.01,2.53,1.05,2.54,2.46
		C9.97,108.63,8.85,109.75,7.45,109.75"/>
	<path d="M137.37,115.12c-1.42-0.02-2.49-1.11-2.47-2.54c0.02-1.41,1.14-2.49,2.56-2.46c1.35,0.02,2.44,1.16,2.44,2.51
		C139.9,114.04,138.78,115.13,137.37,115.12"/>
	<path d="M165.17,123.91c-0.01,1.37-1.1,2.47-2.45,2.49c-1.39,0.01-2.55-1.13-2.55-2.5c0.01-1.4,1.13-2.52,2.52-2.53
		C164.06,121.36,165.18,122.51,165.17,123.91"/>
	<path d="M50.75,51.31c1.43-0.01,2.51,1.07,2.51,2.5c0,1.42-1.1,2.51-2.51,2.5c-1.36-0.01-2.47-1.11-2.49-2.46
		C48.24,52.44,49.34,51.32,50.75,51.31"/>
	<path d="M169.41,82.09c-0.05,1.4-1.22,2.49-2.6,2.42c-1.35-0.06-2.42-1.21-2.39-2.56c0.02-1.38,1.19-2.49,2.57-2.45
		C168.39,79.53,169.45,80.67,169.41,82.09"/>
	<path d="M36.25,154.28c-1.41-0.01-2.51-1.12-2.49-2.53c0.02-1.34,1.14-2.46,2.48-2.47c1.4-0.01,2.52,1.09,2.52,2.5
		C38.76,153.19,37.66,154.29,36.25,154.28"/>
</g>
</svg>
