<?xml version="1.0" encoding="utf-8"?>
<!-- Generator: Adobe Illustrator 27.7.0, SVG Export Plug-In . SVG Version: 6.00 Build 0)  -->
<svg version="1.1" id="Ebene_1" xmlns="http://www.w3.org/2000/svg" xmlns:xlink="http://www.w3.org/1999/xlink" x="0px" y="0px"
	 viewBox="0 0 200 200" enable-background="new 0 0 200 200" xml:space="preserve">
<g>
	<path fill="none" stroke="#000000" stroke-width="1.5" stroke-linecap="round" stroke-linejoin="round" stroke-miterlimit="10" d="
		M104.24,146.95c0.86,6.46,5.95,11.54,12.4,12.4l7.61,1.02l-7.61,1.02c-6.45,0.86-11.54,5.94-12.4,12.39l-1.01,7.61l-1.02-7.61
		c-0.86-6.45-5.94-11.54-12.4-12.39l-7.61-1.02l7.61-1.02c6.46-0.86,11.54-5.94,12.4-12.4l1.02-7.61L104.24,146.95z M154.66,71.73
		c1.32,9.86,9.08,17.63,18.94,18.94l11.64,1.56l-11.64,1.55c-9.86,1.32-17.62,9.08-18.94,18.94l-1.56,11.64l-1.55-11.64
		c-1.32-9.86-9.08-17.62-18.94-18.94l-11.64-1.55l11.64-1.56c9.86-1.31,17.62-9.08,18.94-18.94l1.55-11.64L154.66,71.73z
		 M80.18,28.34c1.1,8.25,7.6,14.74,15.85,15.85l9.73,1.3l-9.73,1.3c-8.25,1.1-14.75,7.59-15.85,15.84l-1.3,9.74l-1.3-9.74
		c-1.1-8.25-7.59-14.74-15.85-15.84L52,45.49l9.73-1.3c8.26-1.11,14.75-7.6,15.85-15.85l1.3-9.73L80.18,28.34z"/>
</g>
</svg>
