<?xml version="1.0" encoding="utf-8"?>
<!-- Generator: Adobe Illustrator 27.7.0, SVG Export Plug-In . SVG Version: 6.00 Build 0)  -->
<svg version="1.1" id="Ebene_1" xmlns="http://www.w3.org/2000/svg" xmlns:xlink="http://www.w3.org/1999/xlink" x="0px" y="0px"
	 viewBox="0 0 200 200" enable-background="new 0 0 200 200" xml:space="preserve">
<g>
	<g>
		<path fill="none" stroke="#000000" stroke-width="1.5" stroke-miterlimit="10" d="M158.45,80.33h17.23v-8.97h-17.23V80.33z
			 M24.32,80.33h17.23v-8.97H24.32V80.33z M154.92,83.28H45.08c-1.95,0-3.53-1.58-3.53-3.53v-8.96c0-1.95,1.58-3.53,3.53-3.53
			h109.84c1.95,0,3.53,1.58,3.53,3.53v8.96C158.45,81.7,156.87,83.28,154.92,83.28z M1.81,19.92v69.53c0,2.07,1.67,3.74,3.74,3.74
			h15.02c2.07,0,3.74-1.67,3.74-3.74V54.43c0-2.07,1.68-3.74,3.74-3.74h143.87c2.07,0,3.74,1.67,3.74,3.74v35.01
			c0,2.07,1.67,3.74,3.74,3.74h15.02c2.07,0,3.74-1.67,3.74-3.74V19.92c0-2.07-1.67-3.74-3.74-3.74H5.55
			C3.48,16.17,1.81,17.85,1.81,19.92z"/>
	</g>
	<path fill="none" stroke="#000000" stroke-width="1.5" stroke-linecap="round" stroke-miterlimit="10" d="M184.84,151.62
		l-27.12-30.58 M60.33,133.39L41.7,169.76 M70.66,180.42l9.39-39.8 M129.59,180.36l-9.47-39.78 M139.88,133.29l18.73,36.31
		 M42.38,121.13L15.3,151.75 M100,183.83v-40.82"/>
</g>
</svg>
