<?xml version="1.0" encoding="utf-8"?>
<!-- Generator: Adobe Illustrator 27.7.0, SVG Export Plug-In . SVG Version: 6.00 Build 0)  -->
<svg version="1.1" id="Ebene_1" xmlns="http://www.w3.org/2000/svg" xmlns:xlink="http://www.w3.org/1999/xlink" x="0px" y="0px"
	 viewBox="0 0 200 200" enable-background="new 0 0 200 200" xml:space="preserve">
<path fill="#F8F7F7" d="M187.55,200H12.45C5.57,200,0,194.43,0,187.55V12.45C0,5.57,5.57,0,12.45,0h175.1
	C194.43,0,200,5.57,200,12.45v175.1C200,194.43,194.43,200,187.55,200z"/>
<g>
	<g>
		<g>
			<path fill="none" stroke="#000000" stroke-miterlimit="10" d="M49.62,49.98c32.22,12.58,68.01,12.58,100.23,0"/>
			<g>
				<polygon points="49.08,55.1 43.01,47.2 52.89,45.88 				"/>
			</g>
			<g>
				<polygon points="150.39,55.1 156.46,47.2 146.58,45.88 				"/>
			</g>
		</g>
	</g>
	<g>
		<g>
			<path fill="none" stroke="#000000" stroke-miterlimit="10" d="M49.25,155.38c-1.91,0-3.82-0.01-5.73-0.01
				c-0.01-29.54-0.02-59.08-0.02-88.62c1.82,0.81,3.66,1.58,5.51,2.31C49.09,97.83,49.17,126.61,49.25,155.38z"/>
			<path fill="none" stroke="#000000" stroke-miterlimit="10" d="M67.21,155.41c-1.91,0-3.82-0.01-5.73-0.01
				c-0.16-27.41-0.32-54.83-0.48-82.24c1.89,0.55,3.8,1.07,5.71,1.54C66.87,101.6,67.04,128.51,67.21,155.41z"/>
			<path fill="none" stroke="#000000" stroke-miterlimit="10" d="M85.17,155.43c-1.91,0-3.82,0-5.73,0
				c-0.14-26.09-0.28-52.17-0.41-78.26c1.94,0.3,3.88,0.55,5.82,0.77C84.95,103.77,85.06,129.6,85.17,155.43z"/>
			<path fill="none" stroke="#000000" stroke-miterlimit="10" d="M103.13,155.43c-1.91,0-3.82,0-5.73,0
				c-0.02-25.56-0.04-51.12-0.07-76.68c1.95,0.04,3.91,0.04,5.86,0C103.17,104.32,103.15,129.88,103.13,155.43z"/>
			<path fill="none" stroke="#000000" stroke-miterlimit="10" d="M121.09,155.43c-1.91,0-3.82,0-5.73,0
				c0.11-25.83,0.21-51.66,0.32-77.5c1.95-0.22,3.89-0.47,5.82-0.77C121.36,103.25,121.22,129.34,121.09,155.43z"/>
			<path fill="none" stroke="#000000" stroke-miterlimit="10" d="M139.04,155.4c-1.91,0-3.82,0.01-5.73,0.01
				c0.17-26.9,0.34-53.81,0.5-80.71c1.91-0.47,3.81-0.99,5.71-1.54C139.37,100.58,139.21,127.99,139.04,155.4z"/>
			<path fill="none" stroke="#000000" stroke-miterlimit="10" d="M157,155.37c-1.91,0-3.82,0.01-5.73,0.01
				c0.08-28.78,0.16-57.55,0.24-86.33c1.85-0.73,3.69-1.5,5.51-2.31C157.02,96.29,157.01,125.83,157,155.37z"/>
		</g>
	</g>
</g>
</svg>
