<?xml version="1.0" encoding="utf-8"?>
<!-- Generator: Adobe Illustrator 27.7.0, SVG Export Plug-In . SVG Version: 6.00 Build 0)  -->
<svg version="1.1" id="Ebene_1" xmlns="http://www.w3.org/2000/svg" xmlns:xlink="http://www.w3.org/1999/xlink" x="0px" y="0px"
	 viewBox="0 0 16 16" enable-background="new 0 0 16 16" xml:space="preserve">
<path fill="none" stroke="#010202" stroke-width="0.75" stroke-miterlimit="10" d="M6.29,7.67L6.29,7.67c-1.71,0-3.1-1.39-3.1-3.1
	V2.73h6.19v1.84C9.38,6.28,8,7.67,6.29,7.67z"/>
<line fill="none" stroke="#010202" stroke-width="0.75" stroke-miterlimit="10" x1="4.68" y1="0.33" x2="4.68" y2="2.73"/>
<line fill="none" stroke="#010202" stroke-width="0.75" stroke-miterlimit="10" x1="7.9" y1="0.33" x2="7.9" y2="2.73"/>
<path fill="none" stroke="#010202" stroke-width="0.75" stroke-miterlimit="10" d="M12.6,13.14v-2.41c0-0.82-0.66-1.48-1.48-1.48h0
	c-0.82,0-1.48,0.66-1.48,1.48v3.2c0,0.82-0.66,1.48-1.48,1.48H7.77c-0.82,0-1.48-0.66-1.48-1.48V7.67"/>
<path fill="none" stroke="#010202" stroke-width="0.75" stroke-miterlimit="10" d="M9.69,15.41"/>
</svg>
