<?xml version="1.0" encoding="utf-8"?>
<!-- Generator: Adobe Illustrator 27.7.0, SVG Export Plug-In . SVG Version: 6.00 Build 0)  -->
<svg version="1.1" id="Ebene_1" xmlns="http://www.w3.org/2000/svg" xmlns:xlink="http://www.w3.org/1999/xlink" x="0px" y="0px"
	 viewBox="0 0 200 200" enable-background="new 0 0 200 200" xml:space="preserve">
<g>
	<g>
		<path fill="#194B97" d="M100,60c15.46,0,28-12.54,28-28S115.46,4,100,4S72,16.54,72,32S84.54,60,100,60"/>
		<path fill="#152437" d="M115.67,35.92H84.3V18.28h31.36V35.92z M115.92,16.98H84.08c-0.55,0-1,0.47-1,1.05v19.18h33.84V18.03
			C116.92,17.45,116.47,16.98,115.92,16.98"/>
	</g>
	<path fill="#FFFFFF" d="M85.58,19.57h16.19V34.6H85.58V19.57z M102.98,25.17h11.09v9.53h-11.09V25.17z M103.02,19.56h11.09v4.35
		h-11.09V19.56z M84.3,35.92h31.36V18.28H84.3V35.92z"/>
	<g>
		<path fill="#EDEDED" d="M99.98,39.15c0.4,0,0.72,0.34,0.72,0.75c0,0.42-0.32,0.75-0.72,0.75c-0.4,0-0.72-0.34-0.72-0.75
			C99.26,39.49,99.58,39.15,99.98,39.15 M83.08,41.21c0,0.58,0.45,1.05,1,1.05h11.86h8.07h11.9c0.55,0,1-0.47,1-1.05v-3.99H83.08
			V41.21z"/>
	</g>
	<rect x="85.58" y="19.57" fill="#C2C1C4" width="16.19" height="15.03"/>
	<rect x="103.02" y="19.56" fill="#E1513D" width="11.09" height="4.35"/>
	<rect x="102.98" y="25.17" fill="#F2B14F" width="11.09" height="9.53"/>
	<rect x="92.76" y="45.99" fill="#EDEDED" width="14.44" height="1.02"/>
	<polygon fill="#EDEDED" points="96.2,45.99 103.77,45.99 103.77,42.85 103.76,42.85 96.2,42.85 	"/>
	<polygon fill="#C2C1C4" points="95.94,42.26 96.2,42.85 96.2,42.85 103.76,42.85 104.01,42.26 	"/>
</g>
<g>
	<path fill="#010102" d="M73.79,194.58v-1.78c-2.44,0.64-5.46,1.29-9.01,1.78H73.79z"/>
	<path fill="#010102" d="M30.84,194.58h9.01c-3.55-0.49-6.57-1.14-9.01-1.78V194.58z"/>
	<path fill="#010102" d="M75.04,192.47l-0.32,0.09v0c-0.3,0.08-0.6,0.17-0.92,0.25v1.78v0.84h2.23v-3.24
		C75.71,192.28,75.38,192.37,75.04,192.47"/>
	<path fill="#010102" d="M30.84,192.8c-0.32-0.08-0.62-0.17-0.92-0.25v0l-0.39-0.11v0c-0.32-0.09-0.63-0.18-0.92-0.27v3.24h2.23
		v-0.84V192.8z"/>
	<path fill="#656665" d="M44.97,90.54v0.82c0.28-0.01,0.56-0.02,0.85-0.03c0.15-0.46,0.56-0.79,1.04-0.79
		c0.47,0,0.87,0.31,1.03,0.74c0.39-0.01,0.77-0.02,1.17-0.02c0.17-0.42,0.57-0.72,1.03-0.72c0.45,0,0.84,0.29,1.02,0.7
		c0.4,0,0.79,0,1.2,0c0.17-0.41,0.56-0.69,1.01-0.69c0.46,0,0.85,0.29,1.02,0.7c0.4,0,0.79,0.01,1.19,0.01
		c0.17-0.42,0.57-0.72,1.03-0.72c0.47,0,0.87,0.31,1.03,0.75c0.29,0.01,0.57,0.02,0.85,0.02v-0.78c0-0.3-0.23-0.54-0.51-0.54H45.48
		C45.2,90,44.97,90.24,44.97,90.54"/>
	<path fill="#4A494A" d="M46.86,90.55c-0.49,0-0.89,0.33-1.04,0.79c0.67-0.02,1.37-0.04,2.07-0.05
		C47.73,90.85,47.33,90.55,46.86,90.55"/>
	<path fill="#4A494A" d="M56.55,90.55c-0.46,0-0.86,0.3-1.03,0.72c0.7,0.01,1.39,0.02,2.06,0.04
		C57.43,90.86,57.03,90.55,56.55,90.55"/>
	<path fill="#4A494A" d="M54.34,91.25c-0.17-0.41-0.56-0.7-1.02-0.7c-0.45,0-0.84,0.29-1.01,0.69h0.02
		C53.01,91.24,53.68,91.24,54.34,91.25"/>
	<path fill="#4A494A" d="M50.09,90.55c-0.46,0-0.86,0.3-1.03,0.72c0.67-0.01,1.35-0.02,2.04-0.02
		C50.93,90.83,50.55,90.55,50.09,90.55"/>
	<path fill="#C7C6C6" d="M75.1,92.57c3.94,0.53,5.9,1.01,5.9,1.01v96.8c0,0-1.74,0.82-4.98,1.8v0.01c3.25-0.98,4.99-1.8,4.99-1.8h0
		v-96.8c0,0-2.07-0.51-6.25-1.06L75.1,92.57L75.1,92.57z"/>
	<path fill="#C7C6C6" d="M23.63,190.38c0,0,1.73,0.82,4.98,1.8v0C25.37,191.2,23.63,190.38,23.63,190.38"/>
	<path fill="#C7C6C6" d="M39.85,194.58c3.62,0.5,7.79,0.84,12.47,0.84c4.67,0,8.84-0.34,12.47-0.84H39.85z"/>
	<path fill="#C7C6C6" d="M29.53,92.57c-3.95,0.53-5.9,1.01-5.9,1.01S25.59,93.09,29.53,92.57L29.53,92.57z"/>
	<path fill="#C7C6C6" d="M60.07,130.87v11.36l-5.83,15.64h0c0,0-0.44,1.22-3.08,1.22c-2.65,0-3.08-1.22-3.08-1.22l-5.83-15.64
		v-11.36c0-0.42,0.33-0.77,0.73-0.77c0,0,4.45,1.12,8.48,1.12s7.88-1.12,7.88-1.12C59.74,130.11,60.07,130.45,60.07,130.87
		 M70.89,101.23c0-0.32,0.24-0.57,0.54-0.57s0.54,0.26,0.54,0.57v84.22c0,0.32-0.24,0.57-0.54,0.57s-0.54-0.26-0.54-0.57V101.23z
		 M50.68,112.23c0-0.12,0.07-0.22,0.18-0.26c0.18-0.05,0.48-0.12,0.85-0.12c0.37,0,0.67,0.07,0.85,0.12
		c0.11,0.03,0.18,0.14,0.18,0.26v14.79v0c0,0.1-0.05,0.19-0.13,0.23c-0.15,0.09-0.44,0.2-0.9,0.2c-0.46,0-0.75-0.12-0.9-0.2
		c-0.08-0.04-0.13-0.13-0.13-0.23V112.23z M57.61,91.39c0.03,0.1,0.06,0.21,0.06,0.32c0,0.65-0.5,1.17-1.12,1.17
		c-0.62,0-1.12-0.52-1.12-1.17c0-0.11,0.03-0.22,0.06-0.32h-1.13c0.03,0.1,0.06,0.21,0.06,0.32c0,0.65-0.5,1.17-1.12,1.17
		s-1.12-0.52-1.12-1.17c0-0.11,0.03-0.22,0.06-0.32h-1.12c0.03,0.1,0.06,0.21,0.06,0.32c0,0.65-0.5,1.17-1.12,1.17
		c-0.62,0-1.12-0.52-1.12-1.17c0-0.11,0.03-0.22,0.06-0.32h-1.12c0.03,0.1,0.06,0.21,0.06,0.32c0,0.65-0.5,1.17-1.12,1.17
		c-0.62,0-1.12-0.52-1.12-1.17c0-0.11,0.03-0.22,0.06-0.32h-0.84v-0.03c-6.52,0.22-11.53,0.7-15.05,1.15v97.69h0.92h42.95h0.92
		V92.51c-3.74-0.49-9.15-1-16.27-1.19v0.07H57.61z"/>
	<path fill="#C7C6C6" d="M30.84,190.2v2.61c2.44,0.64,5.46,1.29,9.01,1.78h24.94c3.55-0.49,6.57-1.14,9.01-1.78v-2.61H30.84z"/>
	<path fill="#C7C6C6" d="M75.1,192.45L75.1,192.45l-0.06,0.02c0.34-0.1,0.67-0.19,0.99-0.29v-0.01
		C75.73,192.26,75.42,192.35,75.1,192.45"/>
	<path fill="#C7C6C6" d="M73.79,190.2v2.61c0.32-0.08,0.62-0.17,0.92-0.25v-2.36H73.79z"/>
	<path fill="#C7C6C6" d="M28.61,192.17L28.61,192.17c0.29,0.09,0.6,0.18,0.92,0.27v0C29.21,192.35,28.9,192.26,28.61,192.17"/>
	<path fill="#C7C6C6" d="M29.92,190.2v2.36c0.3,0.08,0.6,0.17,0.92,0.25v-2.61H29.92z"/>
	<path fill="#C7C6C6" d="M55.5,91.39c0.01-0.04,0.01-0.09,0.03-0.13c-0.39-0.01-0.79-0.01-1.18-0.01c0.02,0.05,0.02,0.1,0.03,0.15
		H55.5z"/>
	<path fill="#C7C6C6" d="M57.61,91.39h0.84v-0.07c-0.28-0.01-0.56-0.02-0.85-0.02C57.6,91.33,57.6,91.36,57.61,91.39"/>
	<path fill="#C7C6C6" d="M52.27,91.39c0.01-0.05,0.02-0.11,0.04-0.15c-0.41,0-0.8,0-1.2,0c0.02,0.05,0.02,0.1,0.04,0.15H52.27z"/>
	<path fill="#C7C6C6" d="M49.04,91.39c0.01-0.04,0.01-0.09,0.03-0.13c-0.4,0.01-0.78,0.01-1.17,0.02c0.01,0.03,0.01,0.07,0.02,0.11
		H49.04z"/>
	<path fill="#C7C6C6" d="M45.81,91.39c0.01-0.02,0.01-0.04,0.01-0.06c-0.29,0.01-0.57,0.02-0.85,0.03v0.03H45.81z"/>
	<path fill="#C7C6C6" d="M45.75,91.72c0,0.65,0.5,1.17,1.12,1.17c0.62,0,1.12-0.52,1.12-1.17c0-0.11-0.03-0.22-0.06-0.32h-2.11
		C45.78,91.5,45.75,91.6,45.75,91.72"/>
	<path fill="#C7C6C6" d="M47.92,91.39c-0.01-0.04-0.01-0.08-0.02-0.11c-0.71,0.01-1.4,0.03-2.07,0.05
		c-0.01,0.02-0.01,0.04-0.01,0.06H47.92z"/>
	<path fill="#C7C6C6" d="M55.44,91.72c0,0.65,0.5,1.17,1.12,1.17c0.62,0,1.12-0.52,1.12-1.17c0-0.11-0.03-0.22-0.06-0.32H55.5
		C55.47,91.5,55.44,91.6,55.44,91.72"/>
	<path fill="#C7C6C6" d="M57.61,91.39c-0.01-0.03-0.01-0.07-0.02-0.09c-0.67-0.02-1.36-0.03-2.06-0.04
		c-0.02,0.04-0.01,0.09-0.03,0.13H57.61z"/>
	<path fill="#C7C6C6" d="M52.21,91.72c0,0.65,0.5,1.17,1.12,1.17c0.62,0,1.12-0.52,1.12-1.17c0-0.11-0.03-0.22-0.06-0.32h-2.11
		C52.24,91.5,52.21,91.6,52.21,91.72"/>
	<path fill="#C7C6C6" d="M54.37,91.39c-0.01-0.05-0.01-0.1-0.03-0.15c-0.66-0.01-1.33-0.01-2.02-0.01h-0.02
		c-0.02,0.05-0.03,0.1-0.04,0.15H54.37z"/>
	<path fill="#C7C6C6" d="M48.98,91.72c0,0.65,0.5,1.17,1.12,1.17c0.62,0,1.12-0.52,1.12-1.17c0-0.11-0.03-0.22-0.06-0.32h-2.11
		C49.01,91.5,48.98,91.6,48.98,91.72"/>
	<path fill="#C7C6C6" d="M51.14,91.39c-0.01-0.05-0.02-0.1-0.04-0.15c-0.69,0-1.38,0.01-2.04,0.02c-0.02,0.04-0.01,0.09-0.03,0.13
		H51.14z"/>
	<path fill="#1B3762" d="M51.71,127.46c0.46,0,0.75-0.12,0.9-0.2c0.08-0.04,0.13-0.13,0.13-0.23v0v-14.79
		c0-0.12-0.07-0.22-0.18-0.26c-0.18-0.05-0.48-0.12-0.85-0.12s-0.67,0.07-0.85,0.12c-0.11,0.03-0.18,0.14-0.18,0.26v14.79
		c0,0.1,0.05,0.19,0.13,0.23C50.96,127.34,51.25,127.46,51.71,127.46"/>
	<path fill="#4A494A" d="M51.16,143.65c-3.96,0-8.91-1.41-8.91-1.41l5.83,15.64c0,0,0.44,1.22,3.08,1.22c2.65,0,3.08-1.22,3.08-1.22
		h0l5.83-15.64h0C60.07,142.24,55.12,143.65,51.16,143.65"/>
	<path fill="#656665" d="M56.32,133.92v5.27c0,0.17-0.13,0.3-0.29,0.3h-9.75c-0.16,0-0.29-0.14-0.29-0.3v-5.27
		c0-0.17,0.13-0.3,0.29-0.3h9.75C56.19,133.62,56.32,133.76,56.32,133.92 M42.98,130.11c-0.4,0-0.73,0.34-0.73,0.77v11.36h17.82h0
		v-11.36c0-0.42-0.33-0.77-0.73-0.77c0,0-3.85,1.13-7.88,1.13C47.43,131.23,42.98,130.11,42.98,130.11"/>
	<path fill="#656665" d="M60.07,142.24H42.24c0,0,4.95,1.41,8.91,1.41C55.12,143.65,60.07,142.24,60.07,142.24"/>
	<path fill="#010102" d="M46.85,134.39h8.61v4.34h-8.61V134.39z M45.99,133.92v5.27c0,0.17,0.13,0.3,0.29,0.3h9.75
		c0.16,0,0.29-0.13,0.29-0.3v-5.27c0-0.17-0.13-0.3-0.29-0.3h-9.75C46.12,133.62,45.99,133.76,45.99,133.92"/>
	<rect x="46.85" y="134.39" fill="#FFFFFF" width="8.61" height="4.34"/>
	<g>
		<path fill="#656665" d="M71.43,186.02c0.3,0,0.54-0.26,0.54-0.57v-84.22c0-0.32-0.24-0.57-0.54-0.57c-0.3,0-0.54,0.26-0.54,0.57
			v84.22C70.89,185.77,71.13,186.02,71.43,186.02"/>
		<path fill="#656665" d="M28.61,190.2h0.92V92.57c-3.94,0.53-5.9,1.01-5.9,1.01v96.8c0,0,1.74,0.82,4.98,1.8V190.2z"/>
		<path fill="#656665" d="M28.61,190.2v1.98c0.3,0.09,0.6,0.18,0.92,0.27v-2.25H28.61z"/>
		<path fill="#656665" d="M77.96,127.59c1.14,0,2.06,0.97,2.06,2.16c0,1.19-0.92,2.16-2.06,2.16c-1.14,0-2.06-0.97-2.06-2.16
			C75.9,128.56,76.82,127.59,77.96,127.59 M77.96,136.04c-0.61,0-1.1-0.52-1.1-1.16s0.49-1.16,1.1-1.16s1.1,0.52,1.1,1.16
			S78.57,136.04,77.96,136.04 M76.02,190.2v1.98c3.24-0.98,4.98-1.8,4.98-1.8v-96.8c0,0-1.96-0.49-5.9-1.01v97.63H76.02z"/>
		<path fill="#656665" d="M75.1,190.2v2.25c0.32-0.09,0.63-0.18,0.92-0.27v-1.98H75.1z"/>
		<path fill="#010102" d="M29.92,92.51l-0.39,0.05v0C29.66,92.55,29.79,92.53,29.92,92.51L29.92,92.51z"/>
		<path fill="#010102" d="M29.72,192.5c-0.01,0-0.01,0-0.02-0.01c-0.06-0.02-0.12-0.03-0.18-0.05v0l0.39,0.11v0
			C29.85,192.54,29.79,192.52,29.72,192.5z"/>
		<path fill="#010102" d="M29.72,92.54v97.66h0.19V92.51c-0.13,0.02-0.26,0.03-0.39,0.05v0C29.6,92.56,29.65,92.55,29.72,92.54"/>
		<path fill="#010102" d="M29.53,192.45L29.53,192.45c0.06,0.02,0.12,0.03,0.17,0.05C29.64,192.48,29.59,192.46,29.53,192.45"/>
		<path fill="#010102" d="M29.72,190.2v2.3c0.06,0.02,0.13,0.04,0.19,0.05v-2.36H29.72z"/>
		<path fill="#010102" d="M29.72,192.5L29.72,192.5c-0.01,0-0.01,0-0.02-0.01C29.71,192.5,29.72,192.5,29.72,192.5"/>
		<path fill="#010102" d="M29.53,92.57v97.63h0.19V92.54C29.66,92.55,29.6,92.56,29.53,92.57"/>
		<path fill="#010102" d="M29.53,192.45c0.06,0.02,0.11,0.03,0.17,0.05c0.01,0,0.01,0,0.02,0.01v-2.3h-0.19V192.45z"/>
		<path fill="#010102" d="M74.71,92.51L74.71,92.51c0.02,0,0.04,0.01,0.05,0.01L74.71,92.51z"/>
		<path fill="#010102" d="M74.71,192.56l0.32-0.09C74.93,192.5,74.82,192.53,74.71,192.56L74.71,192.56z"/>
		<path fill="#010102" d="M74.91,190.2V92.54c0.07,0.01,0.13,0.02,0.19,0.03v0l-0.33-0.05c-0.02,0-0.04,0-0.05-0.01v97.69H74.91z"/>
		<path fill="#010102" d="M75.1,192.45c-0.07,0.02-0.13,0.04-0.19,0.06v-2.3h-0.19v2.36c0.11-0.03,0.22-0.06,0.32-0.09L75.1,192.45
			L75.1,192.45z"/>
		<path fill="#010102" d="M75.1,92.57c-0.07-0.01-0.13-0.02-0.19-0.03v97.66h0.19V92.57z"/>
		<path fill="#010102" d="M75.1,192.45v-2.25h-0.19v2.3C74.98,192.48,75.03,192.46,75.1,192.45"/>
		<path fill="#F5CB19" d="M77.96,128.6c0.61,0,1.1,0.52,1.1,1.16s-0.49,1.16-1.1,1.16c-0.61,0-1.1-0.52-1.1-1.16
			S77.35,128.6,77.96,128.6 M77.96,131.92c1.14,0,2.06-0.97,2.06-2.16s-0.92-2.16-2.06-2.16c-1.14,0-2.06,0.97-2.06,2.16
			S76.82,131.92,77.96,131.92"/>
		<path fill="#CE1417" d="M77.96,130.91c0.61,0,1.1-0.52,1.1-1.16s-0.49-1.16-1.1-1.16c-0.61,0-1.1,0.52-1.1,1.16
			S77.35,130.91,77.96,130.91"/>
		<path fill="#C7C6C6" d="M78.09,135.44c0,0.02-0.02,0.04-0.04,0.04h-0.18c-0.02,0-0.04-0.02-0.04-0.04v-1.11
			c0-0.02,0.02-0.04,0.04-0.04h0.18c0.02,0,0.04,0.02,0.04,0.04V135.44z M77.96,133.72c-0.61,0-1.1,0.52-1.1,1.16
			c0,0.64,0.49,1.16,1.1,1.16c0.61,0,1.1-0.52,1.1-1.16C79.06,134.24,78.57,133.72,77.96,133.72"/>
		<path fill="#010102" d="M77.87,134.29c-0.02,0-0.04,0.02-0.04,0.04v1.11c0,0.02,0.02,0.04,0.04,0.04h0.18
			c0.02,0,0.04-0.02,0.04-0.04v-1.11c0-0.02-0.02-0.04-0.04-0.04H77.87z"/>
	</g>
	<g>
		<path d="M41.37,102.7v3.88h-0.02l-2.7-2.62l0.02,2.48h-0.61v-3.87h0.03l2.69,2.65l-0.01-2.52H41.37z"/>
		<path d="M43.13,105.06v0.5h-0.96v-0.5H43.13z"/>
		<path d="M44.58,102.7v3.17h1.85v0.58h-2.45v-3.74H44.58z"/>
		<path d="M47.82,102.7v3.74h-0.6v-3.74H47.82z"/>
		<path d="M52.15,102.7v3.88h-0.02l-2.7-2.62l0.02,2.48h-0.61v-3.87h0.03l2.69,2.65l-0.01-2.52H52.15z"/>
		<path d="M55.67,102.7v0.58h-1.88v1h1.68v0.58h-1.68v1.02h1.95v0.58h-2.56v-3.74H55.67z"/>
		<path d="M60.08,104.32c0.16,0.1,0.29,0.23,0.39,0.41c0.09,0.18,0.14,0.39,0.14,0.62c0,0.23-0.05,0.44-0.15,0.61
			s-0.24,0.31-0.42,0.4c-0.18,0.09-0.38,0.14-0.61,0.14c-0.14,0-0.28-0.03-0.42-0.09c-0.13-0.06-0.24-0.14-0.33-0.24v1.31H58.1
			v-3.26h0.5l0.05,0.32c0.11-0.12,0.24-0.21,0.39-0.28c0.15-0.07,0.31-0.1,0.49-0.1C59.73,104.17,59.91,104.22,60.08,104.32z
			 M59.66,105.96c0.11-0.06,0.19-0.14,0.26-0.24c0.06-0.1,0.1-0.22,0.1-0.35c0-0.2-0.06-0.37-0.19-0.5s-0.29-0.2-0.48-0.2
			c-0.17,0-0.31,0.04-0.42,0.12c-0.12,0.08-0.2,0.2-0.25,0.34v0.44c0.03,0.14,0.11,0.26,0.22,0.34c0.11,0.09,0.25,0.13,0.41,0.13
			C59.43,106.05,59.55,106.02,59.66,105.96z"/>
		<path d="M62.02,104.46c0.11-0.09,0.21-0.16,0.33-0.21c0.11-0.05,0.2-0.08,0.28-0.08l-0.03,0.58c-0.16-0.01-0.3,0.01-0.42,0.08
			c-0.12,0.07-0.22,0.17-0.29,0.29c-0.07,0.12-0.1,0.25-0.1,0.39v0.94h-0.58v-2.18h0.52l0.04,0.5
			C61.83,104.66,61.91,104.56,62.02,104.46z"/>
		<path d="M63.09,104.75c0.1-0.18,0.25-0.32,0.43-0.42c0.19-0.1,0.4-0.15,0.63-0.15c0.24,0,0.45,0.05,0.63,0.15
			c0.18,0.1,0.32,0.24,0.42,0.42c0.1,0.18,0.15,0.38,0.15,0.59c0,0.22-0.05,0.42-0.15,0.59c-0.1,0.18-0.24,0.32-0.42,0.42
			c-0.18,0.1-0.4,0.15-0.64,0.15c-0.23,0-0.44-0.05-0.63-0.14c-0.19-0.09-0.33-0.23-0.43-0.41c-0.1-0.18-0.16-0.38-0.16-0.62
			C62.94,105.12,62.99,104.92,63.09,104.75z M63.7,105.83c0.12,0.13,0.27,0.2,0.45,0.2c0.19,0,0.34-0.06,0.46-0.2
			c0.12-0.13,0.18-0.29,0.18-0.49c0-0.2-0.06-0.36-0.18-0.5c-0.12-0.13-0.27-0.2-0.46-0.2c-0.18,0-0.33,0.07-0.45,0.2
			c-0.12,0.13-0.18,0.3-0.18,0.49C63.52,105.54,63.58,105.7,63.7,105.83z"/>
	</g>
</g>
<g>
	<g>
		<line fill="none" stroke="#194B97" stroke-miterlimit="10" x1="78.72" y1="60.96" x2="57.43" y2="82.25"/>
		<g>
			<polygon fill="#194B97" points="76.44,59.71 81.26,58.42 79.97,63.24 			"/>
		</g>
		<g>
			<polygon fill="#194B97" points="56.19,79.97 54.9,84.78 59.71,83.49 			"/>
		</g>
	</g>
</g>
<g>
	<path fill="#010102" d="M168.49,194.58v-1.78c-2.44,0.64-5.46,1.29-9.01,1.78H168.49z"/>
	<path fill="#010102" d="M125.54,194.58h9.01c-3.55-0.49-6.57-1.14-9.01-1.78V194.58z"/>
	<path fill="#010102" d="M169.74,192.47l-0.32,0.09v0c-0.3,0.08-0.6,0.17-0.92,0.25v1.78v0.84h2.23v-3.24
		C170.41,192.28,170.08,192.37,169.74,192.47"/>
	<path fill="#010102" d="M125.54,192.8c-0.32-0.08-0.62-0.17-0.92-0.25v0l-0.39-0.11v0c-0.32-0.09-0.63-0.18-0.92-0.27v3.24h2.23
		v-0.84V192.8z"/>
	<path fill="#656665" d="M139.67,90.54v0.82c0.28-0.01,0.56-0.02,0.85-0.03c0.15-0.46,0.56-0.79,1.04-0.79
		c0.47,0,0.87,0.31,1.03,0.74c0.39-0.01,0.77-0.02,1.17-0.02c0.17-0.42,0.57-0.72,1.03-0.72c0.45,0,0.84,0.29,1.02,0.7
		c0.4,0,0.79,0,1.2,0c0.17-0.41,0.56-0.69,1.01-0.69c0.46,0,0.85,0.29,1.02,0.7c0.4,0,0.79,0.01,1.19,0.01
		c0.17-0.42,0.57-0.72,1.03-0.72c0.47,0,0.87,0.31,1.03,0.75c0.29,0.01,0.57,0.02,0.85,0.02v-0.78c0-0.3-0.23-0.54-0.51-0.54h-12.45
		C139.9,90,139.67,90.24,139.67,90.54"/>
	<path fill="#4A494A" d="M141.56,90.55c-0.49,0-0.89,0.33-1.04,0.79c0.67-0.02,1.37-0.04,2.07-0.05
		C142.43,90.85,142.03,90.55,141.56,90.55"/>
	<path fill="#4A494A" d="M151.26,90.55c-0.46,0-0.86,0.3-1.03,0.72c0.7,0.01,1.39,0.02,2.06,0.04
		C152.13,90.86,151.73,90.55,151.26,90.55"/>
	<path fill="#4A494A" d="M149.04,91.25c-0.17-0.41-0.56-0.7-1.02-0.7c-0.45,0-0.84,0.29-1.01,0.69h0.02
		C147.71,91.24,148.38,91.24,149.04,91.25"/>
	<path fill="#4A494A" d="M144.79,90.55c-0.46,0-0.86,0.3-1.03,0.72c0.67-0.01,1.35-0.02,2.04-0.02
		C145.64,90.83,145.25,90.55,144.79,90.55"/>
	<path fill="#C7C6C6" d="M169.8,92.57c3.94,0.53,5.9,1.01,5.9,1.01v96.8c0,0-1.74,0.82-4.98,1.8v0.01c3.25-0.98,4.99-1.8,4.99-1.8h0
		v-96.8c0,0-2.07-0.51-6.25-1.06L169.8,92.57L169.8,92.57z"/>
	<path fill="#C7C6C6" d="M118.33,190.38c0,0,1.73,0.82,4.98,1.8v0C120.07,191.2,118.33,190.38,118.33,190.38"/>
	<path fill="#C7C6C6" d="M134.55,194.58c3.62,0.5,7.79,0.84,12.47,0.84c4.67,0,8.84-0.34,12.47-0.84H134.55z"/>
	<path fill="#C7C6C6" d="M124.23,92.57c-3.95,0.53-5.9,1.01-5.9,1.01S120.29,93.09,124.23,92.57L124.23,92.57z"/>
	<path fill="#C7C6C6" d="M154.77,130.87v11.36l-5.83,15.64h0c0,0-0.44,1.22-3.08,1.22c-2.65,0-3.08-1.22-3.08-1.22l-5.83-15.64
		v-11.36c0-0.42,0.33-0.77,0.73-0.77c0,0,4.45,1.12,8.48,1.12s7.88-1.12,7.88-1.12C154.45,130.11,154.77,130.45,154.77,130.87
		 M165.59,101.23c0-0.32,0.24-0.57,0.54-0.57c0.3,0,0.54,0.26,0.54,0.57v84.22c0,0.32-0.24,0.57-0.54,0.57
		c-0.3,0-0.54-0.26-0.54-0.57V101.23z M145.38,112.23c0-0.12,0.07-0.22,0.18-0.26c0.18-0.05,0.48-0.12,0.85-0.12
		c0.37,0,0.67,0.07,0.85,0.12c0.11,0.03,0.18,0.14,0.18,0.26v14.79v0c0,0.1-0.05,0.19-0.13,0.23c-0.15,0.09-0.44,0.2-0.9,0.2
		c-0.46,0-0.75-0.12-0.9-0.2c-0.08-0.04-0.13-0.13-0.13-0.23V112.23z M152.31,91.39c0.03,0.1,0.06,0.21,0.06,0.32
		c0,0.65-0.5,1.17-1.12,1.17c-0.62,0-1.12-0.52-1.12-1.17c0-0.11,0.03-0.22,0.06-0.32h-1.13c0.03,0.1,0.06,0.21,0.06,0.32
		c0,0.65-0.5,1.17-1.12,1.17s-1.12-0.52-1.12-1.17c0-0.11,0.03-0.22,0.06-0.32h-1.12c0.03,0.1,0.06,0.21,0.06,0.32
		c0,0.65-0.5,1.17-1.12,1.17c-0.62,0-1.12-0.52-1.12-1.17c0-0.11,0.03-0.22,0.06-0.32h-1.12c0.03,0.1,0.06,0.21,0.06,0.32
		c0,0.65-0.5,1.17-1.12,1.17s-1.12-0.52-1.12-1.17c0-0.11,0.03-0.22,0.06-0.32h-0.84v-0.03c-6.52,0.22-11.53,0.7-15.05,1.15v97.69
		h0.92h42.95h0.92V92.51c-3.74-0.49-9.15-1-16.27-1.19v0.07H152.31z"/>
	<path fill="#C7C6C6" d="M125.54,190.2v2.61c2.44,0.64,5.46,1.29,9.01,1.78h24.94c3.55-0.49,6.57-1.14,9.01-1.78v-2.61H125.54z"/>
	<path fill="#C7C6C6" d="M169.8,192.45L169.8,192.45l-0.06,0.02c0.34-0.1,0.67-0.19,0.99-0.29v-0.01
		C170.43,192.26,170.12,192.35,169.8,192.45"/>
	<path fill="#C7C6C6" d="M168.49,190.2v2.61c0.32-0.08,0.62-0.17,0.92-0.25v-2.36H168.49z"/>
	<path fill="#C7C6C6" d="M123.31,192.17L123.31,192.17c0.29,0.09,0.6,0.18,0.92,0.27v0C123.91,192.35,123.61,192.26,123.31,192.17"
		/>
	<path fill="#C7C6C6" d="M124.62,190.2v2.36c0.3,0.08,0.6,0.17,0.92,0.25v-2.61H124.62z"/>
	<path fill="#C7C6C6" d="M150.2,91.39c0.01-0.04,0.01-0.09,0.03-0.13c-0.39-0.01-0.79-0.01-1.18-0.01c0.02,0.05,0.02,0.1,0.03,0.15
		H150.2z"/>
	<path fill="#C7C6C6" d="M152.31,91.39h0.84v-0.07c-0.28-0.01-0.56-0.02-0.85-0.02C152.3,91.33,152.3,91.36,152.31,91.39"/>
	<path fill="#C7C6C6" d="M146.97,91.39c0.01-0.05,0.02-0.11,0.04-0.15c-0.41,0-0.8,0-1.2,0c0.02,0.05,0.02,0.1,0.04,0.15H146.97z"/>
	<path fill="#C7C6C6" d="M143.74,91.39c0.01-0.04,0.01-0.09,0.03-0.13c-0.4,0.01-0.78,0.01-1.17,0.02c0.01,0.03,0.01,0.07,0.02,0.11
		H143.74z"/>
	<path fill="#C7C6C6" d="M140.51,91.39c0.01-0.02,0.01-0.04,0.01-0.06c-0.29,0.01-0.57,0.02-0.85,0.03v0.03H140.51z"/>
	<path fill="#C7C6C6" d="M140.45,91.72c0,0.65,0.5,1.17,1.12,1.17c0.62,0,1.12-0.52,1.12-1.17c0-0.11-0.03-0.22-0.06-0.32h-2.11
		C140.48,91.5,140.45,91.6,140.45,91.72"/>
	<path fill="#C7C6C6" d="M142.62,91.39c-0.01-0.04-0.01-0.08-0.02-0.11c-0.71,0.01-1.4,0.03-2.07,0.05
		c-0.01,0.02-0.01,0.04-0.01,0.06H142.62z"/>
	<path fill="#C7C6C6" d="M150.14,91.72c0,0.65,0.5,1.17,1.12,1.17c0.62,0,1.12-0.52,1.12-1.17c0-0.11-0.03-0.22-0.06-0.32h-2.11
		C150.17,91.5,150.14,91.6,150.14,91.72"/>
	<path fill="#C7C6C6" d="M152.31,91.39c-0.01-0.03-0.01-0.07-0.02-0.09c-0.67-0.02-1.36-0.03-2.06-0.04
		c-0.02,0.04-0.01,0.09-0.03,0.13H152.31z"/>
	<path fill="#C7C6C6" d="M146.91,91.72c0,0.65,0.5,1.17,1.12,1.17c0.62,0,1.12-0.52,1.12-1.17c0-0.11-0.03-0.22-0.06-0.32h-2.11
		C146.94,91.5,146.91,91.6,146.91,91.72"/>
	<path fill="#C7C6C6" d="M149.08,91.39c-0.01-0.05-0.01-0.1-0.03-0.15c-0.66-0.01-1.33-0.01-2.02-0.01h-0.02
		c-0.02,0.05-0.03,0.1-0.04,0.15H149.08z"/>
	<path fill="#C7C6C6" d="M143.68,91.72c0,0.65,0.5,1.17,1.12,1.17c0.62,0,1.12-0.52,1.12-1.17c0-0.11-0.03-0.22-0.06-0.32h-2.11
		C143.71,91.5,143.68,91.6,143.68,91.72"/>
	<path fill="#C7C6C6" d="M145.85,91.39c-0.01-0.05-0.02-0.1-0.04-0.15c-0.69,0-1.38,0.01-2.04,0.02c-0.02,0.04-0.01,0.09-0.03,0.13
		H145.85z"/>
	<path fill="#1B3762" d="M146.41,127.46c0.46,0,0.75-0.12,0.9-0.2c0.08-0.04,0.13-0.13,0.13-0.23v0v-14.79
		c0-0.12-0.07-0.22-0.18-0.26c-0.18-0.05-0.48-0.12-0.85-0.12c-0.37,0-0.67,0.07-0.85,0.12c-0.11,0.03-0.18,0.14-0.18,0.26v14.79
		c0,0.1,0.05,0.19,0.13,0.23C145.66,127.34,145.95,127.46,146.41,127.46"/>
	<path fill="#4A494A" d="M145.86,143.65c-3.96,0-8.91-1.41-8.91-1.41l5.83,15.64c0,0,0.44,1.22,3.08,1.22
		c2.65,0,3.08-1.22,3.08-1.22h0l5.83-15.64h0C154.77,142.24,149.82,143.65,145.86,143.65"/>
	<path fill="#656665" d="M151.02,133.92v5.27c0,0.17-0.13,0.3-0.29,0.3h-9.75c-0.16,0-0.29-0.14-0.29-0.3v-5.27
		c0-0.17,0.13-0.3,0.29-0.3h9.75C150.89,133.62,151.02,133.76,151.02,133.92 M137.68,130.11c-0.4,0-0.73,0.34-0.73,0.77v11.36h17.82
		h0v-11.36c0-0.42-0.33-0.77-0.73-0.77c0,0-3.85,1.13-7.88,1.13C142.13,131.23,137.68,130.11,137.68,130.11"/>
	<path fill="#656665" d="M154.77,142.24h-17.82c0,0,4.95,1.41,8.91,1.41C149.82,143.65,154.77,142.24,154.77,142.24"/>
	<path fill="#010102" d="M141.55,134.39h8.61v4.34h-8.61V134.39z M140.69,133.92v5.27c0,0.17,0.13,0.3,0.29,0.3h9.75
		c0.16,0,0.29-0.13,0.29-0.3v-5.27c0-0.17-0.13-0.3-0.29-0.3h-9.75C140.82,133.62,140.69,133.76,140.69,133.92"/>
	<rect x="141.55" y="134.39" fill="#FFFFFF" width="8.61" height="4.34"/>
	<g>
		<path fill="#656665" d="M166.13,186.02c0.3,0,0.54-0.26,0.54-0.57v-84.22c0-0.32-0.24-0.57-0.54-0.57s-0.54,0.26-0.54,0.57v84.22
			C165.59,185.77,165.83,186.02,166.13,186.02"/>
		<path fill="#656665" d="M123.31,190.2h0.92V92.57c-3.94,0.53-5.9,1.01-5.9,1.01v96.8c0,0,1.74,0.82,4.98,1.8V190.2z"/>
		<path fill="#656665" d="M123.31,190.2v1.98c0.3,0.09,0.6,0.18,0.92,0.27v-2.25H123.31z"/>
		<path fill="#656665" d="M172.66,127.59c1.14,0,2.06,0.97,2.06,2.16c0,1.19-0.92,2.16-2.06,2.16s-2.06-0.97-2.06-2.16
			C170.6,128.56,171.52,127.59,172.66,127.59 M172.66,136.04c-0.61,0-1.1-0.52-1.1-1.16s0.49-1.16,1.1-1.16
			c0.61,0,1.1,0.52,1.1,1.16S173.27,136.04,172.66,136.04 M170.73,190.2v1.98c3.24-0.98,4.98-1.8,4.98-1.8v-96.8
			c0,0-1.96-0.49-5.9-1.01v97.63H170.73z"/>
		<path fill="#656665" d="M169.8,190.2v2.25c0.32-0.09,0.63-0.18,0.92-0.27v-1.98H169.8z"/>
		<path fill="#010102" d="M124.62,92.51l-0.39,0.05v0C124.36,92.55,124.49,92.53,124.62,92.51L124.62,92.51z"/>
		<path fill="#010102" d="M124.43,192.5c-0.01,0-0.01,0-0.02-0.01c-0.06-0.02-0.12-0.03-0.18-0.05v0l0.39,0.11v0
			C124.56,192.54,124.49,192.52,124.43,192.5z"/>
		<path fill="#010102" d="M124.43,92.54v97.66h0.19V92.51c-0.13,0.02-0.26,0.03-0.39,0.05v0C124.3,92.56,124.36,92.55,124.43,92.54"
			/>
		<path fill="#010102" d="M124.23,192.45L124.23,192.45c0.06,0.02,0.12,0.03,0.17,0.05C124.35,192.48,124.29,192.46,124.23,192.45"
			/>
		<path fill="#010102" d="M124.43,190.2v2.3c0.06,0.02,0.13,0.04,0.19,0.05v-2.36H124.43z"/>
		<path fill="#010102" d="M124.43,192.5L124.43,192.5c-0.01,0-0.01,0-0.02-0.01C124.41,192.5,124.42,192.5,124.43,192.5"/>
		<path fill="#010102" d="M124.23,92.57v97.63h0.19V92.54C124.36,92.55,124.3,92.56,124.23,92.57"/>
		<path fill="#010102" d="M124.23,192.45c0.06,0.02,0.11,0.03,0.17,0.05c0.01,0,0.01,0,0.02,0.01v-2.3h-0.19V192.45z"/>
		<path fill="#010102" d="M169.42,92.51L169.42,92.51c0.02,0,0.04,0.01,0.05,0.01L169.42,92.51z"/>
		<path fill="#010102" d="M169.42,192.56l0.32-0.09C169.63,192.5,169.52,192.53,169.42,192.56L169.42,192.56z"/>
		<path fill="#010102" d="M169.61,190.2V92.54c0.07,0.01,0.13,0.02,0.19,0.03v0l-0.33-0.05c-0.02,0-0.04,0-0.05-0.01v97.69H169.61z"
			/>
		<path fill="#010102" d="M169.8,192.45c-0.07,0.02-0.13,0.04-0.19,0.06v-2.3h-0.19v2.36c0.11-0.03,0.22-0.06,0.32-0.09
			L169.8,192.45L169.8,192.45z"/>
		<path fill="#010102" d="M169.8,92.57c-0.07-0.01-0.13-0.02-0.19-0.03v97.66h0.19V92.57z"/>
		<path fill="#010102" d="M169.8,192.45v-2.25h-0.19v2.3C169.68,192.48,169.74,192.46,169.8,192.45"/>
		<path fill="#F5CB19" d="M172.66,128.6c0.61,0,1.1,0.52,1.1,1.16s-0.49,1.16-1.1,1.16s-1.1-0.52-1.1-1.16
			S172.05,128.6,172.66,128.6 M172.66,131.92c1.14,0,2.06-0.97,2.06-2.16s-0.92-2.16-2.06-2.16s-2.06,0.97-2.06,2.16
			S171.52,131.92,172.66,131.92"/>
		<path fill="#CE1417" d="M172.66,130.91c0.61,0,1.1-0.52,1.1-1.16s-0.49-1.16-1.1-1.16s-1.1,0.52-1.1,1.16
			S172.05,130.91,172.66,130.91"/>
		<path fill="#C7C6C6" d="M172.79,135.44c0,0.02-0.02,0.04-0.04,0.04h-0.18c-0.02,0-0.04-0.02-0.04-0.04v-1.11
			c0-0.02,0.02-0.04,0.04-0.04h0.18c0.02,0,0.04,0.02,0.04,0.04V135.44z M172.66,133.72c-0.61,0-1.1,0.52-1.1,1.16
			c0,0.64,0.49,1.16,1.1,1.16s1.1-0.52,1.1-1.16C173.76,134.24,173.27,133.72,172.66,133.72"/>
		<path fill="#010102" d="M172.57,134.29c-0.02,0-0.04,0.02-0.04,0.04v1.11c0,0.02,0.02,0.04,0.04,0.04h0.18
			c0.02,0,0.04-0.02,0.04-0.04v-1.11c0-0.02-0.02-0.04-0.04-0.04H172.57z"/>
	</g>
	<g>
		<path d="M136.07,102.7v3.88h-0.02l-2.7-2.62l0.02,2.48h-0.61v-3.87h0.03l2.69,2.65l-0.01-2.52H136.07z"/>
		<path d="M137.83,105.06v0.5h-0.96v-0.5H137.83z"/>
		<path d="M139.28,102.7v3.17h1.85v0.58h-2.45v-3.74H139.28z"/>
		<path d="M142.52,102.7v3.74h-0.6v-3.74H142.52z"/>
		<path d="M146.85,102.7v3.88h-0.02l-2.7-2.62l0.02,2.48h-0.61v-3.87h0.03l2.69,2.65l-0.01-2.52H146.85z"/>
		<path d="M150.37,102.7v0.58h-1.88v1h1.68v0.58h-1.68v1.02h1.95v0.58h-2.56v-3.74H150.37z"/>
		<path d="M154.78,104.32c0.17,0.1,0.29,0.23,0.39,0.41s0.14,0.39,0.14,0.62c0,0.23-0.05,0.44-0.15,0.61s-0.24,0.31-0.42,0.4
			s-0.38,0.14-0.61,0.14c-0.14,0-0.28-0.03-0.42-0.09c-0.13-0.06-0.24-0.14-0.33-0.24v1.31h-0.58v-3.26h0.5l0.05,0.32
			c0.11-0.12,0.24-0.21,0.39-0.28c0.15-0.07,0.31-0.1,0.49-0.1C154.43,104.17,154.62,104.22,154.78,104.32z M154.36,105.96
			c0.11-0.06,0.19-0.14,0.26-0.24s0.1-0.22,0.1-0.35c0-0.2-0.06-0.37-0.19-0.5c-0.13-0.13-0.29-0.2-0.48-0.2
			c-0.17,0-0.31,0.04-0.42,0.12c-0.12,0.08-0.2,0.2-0.25,0.34v0.44c0.03,0.14,0.11,0.26,0.22,0.34c0.12,0.09,0.25,0.13,0.41,0.13
			C154.13,106.05,154.25,106.02,154.36,105.96z"/>
		<path d="M156.72,104.46c0.11-0.09,0.22-0.16,0.33-0.21c0.11-0.05,0.21-0.08,0.28-0.08l-0.03,0.58c-0.16-0.01-0.3,0.01-0.42,0.08
			c-0.12,0.07-0.22,0.17-0.29,0.29c-0.07,0.12-0.1,0.25-0.1,0.39v0.94h-0.58v-2.18h0.52l0.04,0.5
			C156.53,104.66,156.61,104.56,156.72,104.46z"/>
		<path d="M157.8,104.75c0.1-0.18,0.25-0.32,0.43-0.42c0.18-0.1,0.4-0.15,0.63-0.15c0.24,0,0.45,0.05,0.63,0.15
			c0.18,0.1,0.32,0.24,0.42,0.42s0.15,0.38,0.15,0.59c0,0.22-0.05,0.42-0.15,0.59s-0.24,0.32-0.42,0.42s-0.4,0.15-0.64,0.15
			c-0.23,0-0.44-0.05-0.63-0.14c-0.19-0.09-0.33-0.23-0.43-0.41s-0.16-0.38-0.16-0.62C157.64,105.12,157.69,104.92,157.8,104.75z
			 M158.4,105.83c0.12,0.13,0.27,0.2,0.45,0.2c0.18,0,0.34-0.06,0.46-0.2c0.12-0.13,0.18-0.29,0.18-0.49c0-0.2-0.06-0.36-0.18-0.5
			c-0.12-0.13-0.27-0.2-0.46-0.2c-0.18,0-0.33,0.07-0.45,0.2c-0.12,0.13-0.18,0.3-0.18,0.49
			C158.22,105.54,158.28,105.7,158.4,105.83z"/>
	</g>
</g>
<g>
	<g>
		<line fill="none" stroke="#194B97" stroke-miterlimit="10" x1="142.91" y1="82.25" x2="121.63" y2="60.96"/>
		<g>
			<polygon fill="#194B97" points="144.16,79.97 145.45,84.78 140.63,83.49 			"/>
		</g>
		<g>
			<polygon fill="#194B97" points="123.91,59.71 119.09,58.42 120.38,63.24 			"/>
		</g>
	</g>
</g>
</svg>
